<?xml version="1.0" encoding="UTF-8" standalone="no"?>
<!-- Created with Inkscape (http://www.inkscape.org/) -->

<svg
   xmlns:dc="http://purl.org/dc/elements/1.1/"
   xmlns:cc="http://creativecommons.org/ns#"
   xmlns:rdf="http://www.w3.org/1999/02/22-rdf-syntax-ns#"
   xmlns:svg="http://www.w3.org/2000/svg"
   xmlns="http://www.w3.org/2000/svg"
   xmlns:sodipodi="http://sodipodi.sourceforge.net/DTD/sodipodi-0.dtd"
   xmlns:inkscape="http://www.inkscape.org/namespaces/inkscape"
   id="svg4136"
   version="1.1"
   inkscape:version="0.91 r13725"
   width="250.88286"
   height="62.655277"
   viewBox="0 0 250.88285 62.655277"
   sodipodi:docname="LCD Klammer.svg">
  <metadata
     id="metadata4142">
    <rdf:RDF>
      <cc:Work
         rdf:about="">
        <dc:format>image/svg+xml</dc:format>
        <dc:type
           rdf:resource="http://purl.org/dc/dcmitype/StillImage" />
        <dc:title></dc:title>
      </cc:Work>
    </rdf:RDF>
  </metadata>
  <defs
     id="defs4140" />
  <sodipodi:namedview
     pagecolor="#ffffff"
     bordercolor="#666666"
     borderopacity="1"
     objecttolerance="10"
     gridtolerance="10"
     guidetolerance="10"
     inkscape:pageopacity="0"
     inkscape:pageshadow="2"
     inkscape:window-width="1920"
     inkscape:window-height="1137"
     id="namedview4138"
     showgrid="false"
     fit-margin-top="0"
     fit-margin-left="0"
     fit-margin-right="0"
     fit-margin-bottom="0"
     inkscape:zoom="4"
     inkscape:cx="50.000829"
     inkscape:cy="12.862869"
     inkscape:window-x="1912"
     inkscape:window-y="292"
     inkscape:window-maximized="1"
     inkscape:current-layer="svg4136" />
  <path
     style="color:#000000;clip-rule:nonzero;display:inline;overflow:visible;visibility:visible;opacity:1;isolation:auto;mix-blend-mode:normal;color-interpolation:sRGB;color-interpolation-filters:linearRGB;solid-color:#000000;solid-opacity:1;fill:#ff0000;fill-opacity:1;fill-rule:evenodd;stroke:#ff0000;stroke-width:0.5;stroke-linecap:butt;stroke-linejoin:round;stroke-miterlimit:4;stroke-dasharray:none;stroke-dashoffset:0;stroke-opacity:1;color-rendering:auto;image-rendering:auto;shape-rendering:auto;text-rendering:auto;enable-background:accumulate"
     d="m 78.154296,0.25775664 c -4.0525,0.206789 -7.138697,3.94427396 -6.304687,6.98437396 0.76759,5.1194794 2.285932,9.2381954 3.701172,13.4941414 1.088609,3.968169 0.285944,7.724295 -3.103516,10.746097 -4.60692,4.10718 -16.382585,12.03076 -25.396484,18.45507 -0.779431,-0.43223 -1.655626,-0.6601 -2.546876,-0.6621 -2.913869,9.9e-4 -5.27548,2.36347 -5.27539,5.27734 5.8e-4,0.36898 0.03989,0.73688 0.117187,1.09766 -0.0278,0.0221 -0.0682,0.0503 -0.0957,0.0723 -1.21333,0.96934 -3.573662,3.07975 -5.320312,3.09375 l -31.5898445,0 c -2.94858999,0 -2.61957999,3.58789 0,3.58789 l 32.7089845,0 c 1.88842,-0.0244 4.70821,-2.44257 6.375,-3.33594 0.05437,-0.0291 0.1322,-0.0775 0.1875,-0.10742 0.85892,0.56534 1.864299,0.86714 2.892578,0.86914 2.91463,9e-5 5.277434,-2.36271 5.277344,-5.27734 -0.0014,-0.13366 -0.0079,-0.26722 -0.01953,-0.40039 9.63869,-5.94956 22.805747,-14.56434 31.810547,-19.56836 2.24329,-1.24661 5.269352,-2.24627 7.007812,-0.67578 9.08926,8.21108 17.610249,12.50411 26.283199,14.34961 4.3625,0.79436 8.4641,1.09267 10.0664,1.10547 l 0.24859,-0.002 0.47297,0.006 0.30383,-0.003 c 1.6023,-0.0128 5.70393,-0.31111 10.06641,-1.10547 8.67295,-1.8455 17.19394,-6.13853 26.2832,-14.34961 1.73846,-1.57049 4.76453,-0.57083 7.00782,0.67578 9.0048,5.00402 22.17185,13.6188 31.81054,19.56836 -0.0116,0.13317 -0.0181,0.26673 -0.0195,0.40039 -9e-5,2.91463 2.36272,5.27743 5.27735,5.27734 1.02828,-0.002 2.03365,-0.3038 2.89257,-0.86914 0.0553,0.0299 0.13313,0.0783 0.1875,0.10742 1.66679,0.89337 4.48658,3.31154 6.375,3.33594 l 32.70704,0 c 2.61958,0 2.94858,-3.58789 0,-3.58789 l -31.5879,0 c -1.74665,-0.014 -4.10698,-2.12441 -5.32031,-3.09375 -0.0275,-0.022 -0.0679,-0.0502 -0.0957,-0.0723 0.0773,-0.36078 0.11661,-0.72868 0.11719,-1.09766 9e-5,-2.91387 -2.36152,-5.27635 -5.27539,-5.27734 -0.89125,0.002 -1.76745,0.22987 -2.54688,0.6621 -9.0139,-6.42431 -20.78956,-14.34789 -25.39648,-18.45507 -3.38946,-3.021802 -4.19213,-6.777928 -3.10352,-10.746097 1.41524,-4.255946 2.93358,-8.374662 3.70117,-13.4941414 0.83401,-3.0401 -2.25219,-6.77758496 -6.30468,-6.98437396 -0.27018,-0.01379 -0.54439,-0.01102 -0.82227,0.0078 -0.63516,0.04307 -1.28678,0.175093 -1.94727,0.410156 C 167.30797,21.953926 156.9976,35.781699 137.81448,40.975539 c -0.0852,-1.27426 -0.3658,-2.52783 -0.83203,-3.71679 -1.01333,-2.97984 -3.16514,-5.04632 -5.50586,-6.316411 -0.68237,-0.380903 -1.39908,-0.696748 -2.14063,-0.943359 -0.005,-0.0016 -0.009,-0.0023 -0.0137,-0.0039 -0.20729,-0.06864 -0.41634,-0.131808 -0.62695,-0.189454 -0.24877,-0.0713 -0.49355,-0.132987 -0.73633,-0.1875 -0.0514,-0.01139 -0.1028,-0.02246 -0.1543,-0.0332 -0.65557,-0.138577 -1.27411,-0.211021 -1.84961,-0.232421 l 0.0117,-0.002 -1.00586,0.0039 c -0.0519,-0.02702 -0.0261,0.06834 -0.0312,-0.002 -0.5755,0.0214 -1.19404,0.09384 -1.84961,0.232421 -0.0515,0.01074 -0.10289,0.02181 -0.15429,0.0332 -0.24278,0.05451 -0.48756,0.116201 -0.73633,0.1875 -0.21061,0.05765 -0.41966,0.120814 -0.62695,0.189454 -0.005,0.0016 -0.009,0.0023 -0.0137,0.0039 -0.74155,0.246611 -1.45825,0.562456 -2.14062,0.943359 -2.34072,1.270091 -4.49252,3.336571 -5.50585,6.316411 -0.46623,1.18896 -0.74683,2.44253 -0.83203,3.71679 C 93.887206,35.781599 83.576831,21.953826 80.923841,0.67661264 c -0.66049,-0.235063 -1.312105,-0.367086 -1.947265,-0.410156 -0.27788,-0.01883 -0.552096,-0.0216 -0.822266,-0.0078 z"
     id="path4146"
     inkscape:connector-curvature="0"
     sodipodi:nodetypes="cccsccccccssccccccssccccccssccccccssccccccscccccccccccccccccccccccccccc" />
</svg>
