  0
SECTION
  2
HEADER
  9
$ACADVER
  1
AC1014
  9
$HANDSEED
  5
FFFF
  9
$MEASUREMENT
 70
     1
  0
ENDSEC
  0
SECTION
  2
TABLES
  0
TABLE
  2
VPORT
  5
8
330
0
100
AcDbSymbolTable
 70
     4
  0
VPORT
  5
2E
330
8
100
AcDbSymbolTableRecord
100
AcDbViewportTableRecord
  2
*ACTIVE
 70
     0
 10
0.0
 20
0.0
 11
1.0
 21
1.0
 12
210.0
 22
148.5
 13
0.0
 23
0.0
 14
10.0
 24
10.0
 15
10.0
 25
10.0
 16
0.0
 26
0.0
 36
1.0
 17
0.0
 27
0.0
 37
0.0
 40
341.0
 41
1.24
 42
50.0
 43
0.0
 44
0.0
 50
0.0
 51
0.0
 71
     0
 72
   100
 73
     1
 74
     3
 75
     0
 76
     0
 77
     0
 78
     0
  0
ENDTAB
  0
TABLE
  2
LTYPE
  5
5
330
0
100
AcDbSymbolTable
 70
     1
  0
LTYPE
  5
14
330
5
100
AcDbSymbolTableRecord
100
AcDbLinetypeTableRecord
  2
BYBLOCK
 70
     0
  3

 72
    65
 73
     0
 40
0.0
  0
LTYPE
  5
15
330
5
100
AcDbSymbolTableRecord
100
AcDbLinetypeTableRecord
  2
BYLAYER
 70
     0
  3

 72
    65
 73
     0
 40
0.0
  0
LTYPE
  5
16
330
5
100
AcDbSymbolTableRecord
100
AcDbLinetypeTableRecord
  2
CONTINUOUS
 70
     0
  3
Solid line
 72
    65
 73
     0
 40
0.0
  0
ENDTAB
  0
TABLE
  2
LAYER
  5
2
100
AcDbSymbolTable
 70
1
  0
LAYER
  5
50
100
AcDbSymbolTableRecord
100
AcDbLayerTableRecord
  2
0
 70
0
  6
CONTINUOUS
  0
ENDTAB
  0
TABLE
  2
STYLE
  5
3
330
0
100
AcDbSymbolTable
 70
     1
  0
STYLE
  5
11
330
3
100
AcDbSymbolTableRecord
100
AcDbTextStyleTableRecord
  2
STANDARD
 70
     0
 40
0.0
 41
1.0
 50
0.0
 71
     0
 42
2.5
  3
txt
  4

  0
ENDTAB
  0
TABLE
  2
VIEW
  5
6
330
0
100
AcDbSymbolTable
 70
     0
  0
ENDTAB
  0
TABLE
  2
UCS
  5
7
330
0
100
AcDbSymbolTable
 70
     0
  0
ENDTAB
  0
TABLE
  2
APPID
  5
9
330
0
100
AcDbSymbolTable
 70
     2
  0
APPID
  5
12
330
9
100
AcDbSymbolTableRecord
100
AcDbRegAppTableRecord
  2
ACAD
 70
     0
  0
ENDTAB
  0
TABLE
  2
DIMSTYLE
  5
A
330
0
100
AcDbSymbolTable
 70
     1
  0
DIMSTYLE
105
27
330
A
100
AcDbSymbolTableRecord
100
AcDbDimStyleTableRecord
  2
ISO-25
 70
     0
  3

  4

  5

  6

  7

 40
1.0
 41
2.5
 42
0.625
 43
3.75
 44
1.25
 45
0.0
 46
0.0
 47
0.0
 48
0.0
140
2.5
141
2.5
142
0.0
143
0.03937007874016
144
1.0
145
0.0
146
1.0
147
0.625
 71
     0
 72
     0
 73
     0
 74
     0
 75
     0
 76
     0
 77
     1
 78
     8
170
     0
171
     3
172
     1
173
     0
174
     0
175
     0
176
     0
177
     0
178
     0
270
     2
271
     2
272
     2
273
     2
274
     3
340
11
275
     0
280
     0
281
     0
282
     0
283
     0
284
     8
285
     0
286
     0
287
     3
288
     0
  0
ENDTAB
  0
TABLE
  2
BLOCK_RECORD
  5
1
330
0
100
AcDbSymbolTable
 70
     1
  0
BLOCK_RECORD
  5
1F
330
1
100
AcDbSymbolTableRecord
100
AcDbBlockTableRecord
  2
*MODEL_SPACE
  0
BLOCK_RECORD
  5
1B
330
1
100
AcDbSymbolTableRecord
100
AcDbBlockTableRecord
  2
*PAPER_SPACE
  0
ENDTAB
  0
ENDSEC
  0
SECTION
  2
BLOCKS
  0
BLOCK
  5
20
330
1F
100
AcDbEntity
  8
0
100
AcDbBlockBegin
  2
*MODEL_SPACE
 70
     0
 10
0.0
 20
0.0
 30
0.0
  3
*MODEL_SPACE
  1

  0
ENDBLK
  5
21
330
1F
100
AcDbEntity
  8
0
100
AcDbBlockEnd
  0
BLOCK
  5
1C
330
1B
100
AcDbEntity
 67
     1
  8
0
100
AcDbBlockBegin
  2
*PAPER_SPACE
  1

  0
ENDBLK
  5
1D
330
1B
100
AcDbEntity
 67
     1
  8
0
100
AcDbBlockEnd
  0
ENDSEC
  0
SECTION
  2
ENTITIES
  0
SPLINE
  5
100
100
AcDbEntity
  8
0
 62
1
100
AcDbSpline
 70
8
 71
3
 72
8
 73
4
 74
0
 40
0
 40
0
 40
0
 40
0
 40
1
 40
1
 40
1
 40
1
 10
22.056879
 20
17.609967
 30
0.0
 10
20.913174
 20
17.551606
 30
0.0
 10
20.042180
 20
16.496805
 30
0.0
 10
20.277556
 20
15.638821
 30
0.0
  0
SPLINE
  5
101
100
AcDbEntity
  8
0
 62
1
100
AcDbSpline
 70
8
 71
3
 72
8
 73
4
 74
0
 40
0
 40
0
 40
0
 40
0
 40
1
 40
1
 40
1
 40
1
 10
20.277556
 20
15.638821
 30
0.0
 10
20.494187
 20
14.193990
 30
0.0
 10
20.922697
 20
13.031597
 30
0.0
 10
21.322109
 20
11.830475
 30
0.0
  0
SPLINE
  5
102
100
AcDbEntity
  8
0
 62
1
100
AcDbSpline
 70
8
 71
3
 72
8
 73
4
 74
0
 40
0
 40
0
 40
0
 40
0
 40
1
 40
1
 40
1
 40
1
 10
21.322109
 20
11.830475
 30
0.0
 10
21.629339
 20
10.710569
 30
0.0
 10
21.402809
 20
9.650507
 30
0.0
 10
20.446228
 20
8.797687
 30
0.0
  0
SPLINE
  5
103
100
AcDbEntity
  8
0
 62
1
100
AcDbSpline
 70
8
 71
3
 72
8
 73
4
 74
0
 40
0
 40
0
 40
0
 40
0
 40
1
 40
1
 40
1
 40
1
 10
20.446228
 20
8.797687
 30
0.0
 10
19.146053
 20
7.638550
 30
0.0
 10
15.822699
 20
5.402340
 30
0.0
 10
13.278776
 20
3.589257
 30
0.0
  0
SPLINE
  5
104
100
AcDbEntity
  8
0
 62
1
100
AcDbSpline
 70
8
 71
3
 72
8
 73
4
 74
0
 40
0
 40
0
 40
0
 40
0
 40
1
 40
1
 40
1
 40
1
 10
13.278776
 20
3.589257
 30
0.0
 10
13.058803
 20
3.711241
 30
0.0
 10
12.811522
 20
3.775551
 30
0.0
 10
12.559991
 20
3.776116
 30
0.0
  0
SPLINE
  5
105
100
AcDbEntity
  8
0
 62
1
100
AcDbSpline
 70
8
 71
3
 72
8
 73
4
 74
0
 40
0
 40
0
 40
0
 40
0
 40
1
 40
1
 40
1
 40
1
 10
12.559991
 20
3.776116
 30
0.0
 10
11.737632
 20
3.775836
 30
0.0
 10
11.071133
 20
3.109092
 30
0.0
 10
11.071159
 20
2.286733
 30
0.0
  0
SPLINE
  5
106
100
AcDbEntity
  8
0
 62
1
100
AcDbSpline
 70
8
 71
3
 72
8
 73
4
 74
0
 40
0
 40
0
 40
0
 40
0
 40
1
 40
1
 40
1
 40
1
 10
11.071159
 20
2.286733
 30
0.0
 10
11.071322
 20
2.182599
 30
0.0
 10
11.082417
 20
2.078769
 30
0.0
 10
11.104231
 20
1.976949
 30
0.0
  0
SPLINE
  5
107
100
AcDbEntity
  8
0
 62
1
100
AcDbSpline
 70
8
 71
3
 72
8
 73
4
 74
0
 40
0
 40
0
 40
0
 40
0
 40
1
 40
1
 40
1
 40
1
 10
11.104231
 20
1.976949
 30
0.0
 10
11.096386
 20
1.970712
 30
0.0
 10
11.084984
 20
1.962753
 30
0.0
 10
11.077223
 20
1.956545
 30
0.0
  0
SPLINE
  5
108
100
AcDbEntity
  8
0
 62
1
100
AcDbSpline
 70
8
 71
3
 72
8
 73
4
 74
0
 40
0
 40
0
 40
0
 40
0
 40
1
 40
1
 40
1
 40
1
 10
11.077223
 20
1.956545
 30
0.0
 10
10.734794
 20
1.682975
 30
0.0
 10
10.068656
 20
1.087371
 30
0.0
 10
9.575713
 20
1.083420
 30
0.0
  0
SPLINE
  5
109
100
AcDbEntity
  8
0
 62
1
100
AcDbSpline
 70
8
 71
3
 72
8
 73
4
 74
0
 40
0
 40
0
 40
0
 40
0
 40
1
 40
1
 40
1
 40
1
 10
0.660356
 20
1.083420
 30
0.0
 10
-0.171801
 20
1.083420
 30
0.0
 10
-0.078947
 20
0.070837
 30
0.0
 10
0.660356
 20
0.070837
 30
0.0
  0
LWPOLYLINE
  5
10a
100
AcDbEntity
  8
0
 62
1
100
AcDbPolyline
 90
2
 70
1
 10
9.575713
 20
1.083420
 30
0.0
 10
0.660356
 20
1.083420
 30
0.0
  0
SPLINE
  5
10b
100
AcDbEntity
  8
0
 62
1
100
AcDbSpline
 70
8
 71
3
 72
8
 73
4
 74
0
 40
0
 40
0
 40
0
 40
0
 40
1
 40
1
 40
1
 40
1
 10
9.891559
 20
0.070837
 30
0.0
 10
10.424513
 20
0.077723
 30
0.0
 10
11.220320
 20
0.760185
 30
0.0
 10
11.690725
 20
1.012314
 30
0.0
  0
SPLINE
  5
10c
100
AcDbEntity
  8
0
 62
1
100
AcDbSpline
 70
8
 71
3
 72
8
 73
4
 74
0
 40
0
 40
0
 40
0
 40
0
 40
1
 40
1
 40
1
 40
1
 10
11.690725
 20
1.012314
 30
0.0
 10
11.706070
 20
1.020526
 30
0.0
 10
11.728035
 20
1.034186
 30
0.0
 10
11.743642
 20
1.042630
 30
0.0
  0
SPLINE
  5
10d
100
AcDbEntity
  8
0
 62
1
100
AcDbSpline
 70
8
 71
3
 72
8
 73
4
 74
0
 40
0
 40
0
 40
0
 40
0
 40
1
 40
1
 40
1
 40
1
 10
11.743642
 20
1.042630
 30
0.0
 10
11.986048
 20
0.883078
 30
0.0
 10
12.269789
 20
0.797904
 30
0.0
 10
12.559992
 20
0.797339
 30
0.0
  0
SPLINE
  5
10e
100
AcDbEntity
  8
0
 62
1
100
AcDbSpline
 70
8
 71
3
 72
8
 73
4
 74
0
 40
0
 40
0
 40
0
 40
0
 40
1
 40
1
 40
1
 40
1
 10
12.559992
 20
0.797339
 30
0.0
 10
13.382565
 20
0.797314
 30
0.0
 10
14.049401
 20
1.464149
 30
0.0
 10
14.049376
 20
2.286722
 30
0.0
  0
SPLINE
  5
10f
100
AcDbEntity
  8
0
 62
1
100
AcDbSpline
 70
8
 71
3
 72
8
 73
4
 74
0
 40
0
 40
0
 40
0
 40
0
 40
1
 40
1
 40
1
 40
1
 10
14.049376
 20
2.286722
 30
0.0
 10
14.048980
 20
2.324444
 30
0.0
 10
14.047146
 20
2.362137
 30
0.0
 10
14.043864
 20
2.399721
 30
0.0
  0
SPLINE
  5
110
100
AcDbEntity
  8
0
 62
1
100
AcDbSpline
 70
8
 71
3
 72
8
 73
4
 74
0
 40
0
 40
0
 40
0
 40
0
 40
1
 40
1
 40
1
 40
1
 10
14.043864
 20
2.399721
 30
0.0
 10
16.764116
 20
4.078819
 30
0.0
 10
20.480152
 20
6.510101
 30
0.0
 10
23.021507
 20
7.922347
 30
0.0
  0
SPLINE
  5
111
100
AcDbEntity
  8
0
 62
1
100
AcDbSpline
 70
8
 71
3
 72
8
 73
4
 74
0
 40
0
 40
0
 40
0
 40
0
 40
1
 40
1
 40
1
 40
1
 10
23.021507
 20
7.922347
 30
0.0
 10
23.654613
 20
8.274168
 30
0.0
 10
24.508635
 20
8.556294
 30
0.0
 10
24.999267
 20
8.113067
 30
0.0
  0
SPLINE
  5
112
100
AcDbEntity
  8
0
 62
1
100
AcDbSpline
 70
8
 71
3
 72
8
 73
4
 74
0
 40
0
 40
0
 40
0
 40
0
 40
1
 40
1
 40
1
 40
1
 10
24.999267
 20
8.113067
 30
0.0
 10
27.564458
 20
5.795718
 30
0.0
 10
29.969271
 20
4.584129
 30
0.0
 10
32.416970
 20
4.063288
 30
0.0
  0
SPLINE
  5
113
100
AcDbEntity
  8
0
 62
1
100
AcDbSpline
 70
8
 71
3
 72
8
 73
4
 74
0
 40
0
 40
0
 40
0
 40
0
 40
1
 40
1
 40
1
 40
1
 10
32.416970
 20
4.063288
 30
0.0
 10
33.648165
 20
3.839102
 30
0.0
 10
34.805727
 20
3.754912
 30
0.0
 10
35.257932
 20
3.751300
 30
0.0
  0
LWPOLYLINE
  5
114
100
AcDbEntity
  8
0
 62
1
100
AcDbPolyline
 90
2
 70
1
 10
0.660356
 20
0.070837
 30
0.0
 10
9.891559
 20
0.070837
 30
0.0
  0
SPLINE
  5
115
100
AcDbEntity
  8
0
 62
1
100
AcDbSpline
 70
8
 71
3
 72
8
 73
4
 74
0
 40
0
 40
0
 40
0
 40
0
 40
1
 40
1
 40
1
 40
1
 10
35.547320
 20
3.751018
 30
0.0
 10
35.999524
 20
3.754630
 30
0.0
 10
37.157096
 20
3.838820
 30
0.0
 10
38.388284
 20
4.063006
 30
0.0
  0
SPLINE
  5
116
100
AcDbEntity
  8
0
 62
1
100
AcDbSpline
 70
8
 71
3
 72
8
 73
4
 74
0
 40
0
 40
0
 40
0
 40
0
 40
1
 40
1
 40
1
 40
1
 10
38.388284
 20
4.063006
 30
0.0
 10
40.835984
 20
4.583847
 30
0.0
 10
43.240796
 20
5.795436
 30
0.0
 10
45.805987
 20
8.112785
 30
0.0
  0
SPLINE
  5
117
100
AcDbEntity
  8
0
 62
1
100
AcDbSpline
 70
8
 71
3
 72
8
 73
4
 74
0
 40
0
 40
0
 40
0
 40
0
 40
1
 40
1
 40
1
 40
1
 10
45.805987
 20
8.112785
 30
0.0
 10
46.296620
 20
8.556012
 30
0.0
 10
47.150644
 20
8.273886
 30
0.0
 10
47.783750
 20
7.922065
 30
0.0
  0
SPLINE
  5
118
100
AcDbEntity
  8
0
 62
1
100
AcDbSpline
 70
8
 71
3
 72
8
 73
4
 74
0
 40
0
 40
0
 40
0
 40
0
 40
1
 40
1
 40
1
 40
1
 10
47.783750
 20
7.922065
 30
0.0
 10
50.325105
 20
6.509819
 30
0.0
 10
54.041139
 20
4.078537
 30
0.0
 10
56.761391
 20
2.399439
 30
0.0
  0
SPLINE
  5
119
100
AcDbEntity
  8
0
 62
1
100
AcDbSpline
 70
8
 71
3
 72
8
 73
4
 74
0
 40
0
 40
0
 40
0
 40
0
 40
1
 40
1
 40
1
 40
1
 10
56.761391
 20
2.399439
 30
0.0
 10
56.758118
 20
2.361855
 30
0.0
 10
56.756283
 20
2.324162
 30
0.0
 10
56.755888
 20
2.286440
 30
0.0
  0
SPLINE
  5
11a
100
AcDbEntity
  8
0
 62
1
100
AcDbSpline
 70
8
 71
3
 72
8
 73
4
 74
0
 40
0
 40
0
 40
0
 40
0
 40
1
 40
1
 40
1
 40
1
 10
56.755888
 20
2.286440
 30
0.0
 10
56.755863
 20
1.463866
 30
0.0
 10
57.422700
 20
0.797032
 30
0.0
 10
58.245273
 20
0.797057
 30
0.0
  0
SPLINE
  5
11b
100
AcDbEntity
  8
0
 62
1
100
AcDbSpline
 70
8
 71
3
 72
8
 73
4
 74
0
 40
0
 40
0
 40
0
 40
0
 40
1
 40
1
 40
1
 40
1
 10
58.245273
 20
0.797057
 30
0.0
 10
58.535477
 20
0.797622
 30
0.0
 10
58.819215
 20
0.882796
 30
0.0
 10
59.061621
 20
1.042348
 30
0.0
  0
SPLINE
  5
11c
100
AcDbEntity
  8
0
 62
1
100
AcDbSpline
 70
8
 71
3
 72
8
 73
4
 74
0
 40
0
 40
0
 40
0
 40
0
 40
1
 40
1
 40
1
 40
1
 10
59.061621
 20
1.042348
 30
0.0
 10
59.077228
 20
1.033909
 30
0.0
 10
59.099193
 20
1.020250
 30
0.0
 10
59.114538
 20
1.012031
 30
0.0
  0
SPLINE
  5
11d
100
AcDbEntity
  8
0
 62
1
100
AcDbSpline
 70
8
 71
3
 72
8
 73
4
 74
0
 40
0
 40
0
 40
0
 40
0
 40
1
 40
1
 40
1
 40
1
 10
59.114538
 20
1.012031
 30
0.0
 10
59.584943
 20
0.759903
 30
0.0
 10
60.380750
 20
0.077441
 30
0.0
 10
60.913704
 20
0.070555
 30
0.0
  0
LWPOLYLINE
  5
11e
100
AcDbEntity
  8
0
 62
1
100
AcDbPolyline
 90
4
 70
1
 10
35.257932
 20
3.751300
 30
0.0
 10
35.328090
 20
3.751864
 30
0.0
 10
35.461572
 20
3.750171
 30
0.0
 10
35.547320
 20
3.751018
 30
0.0
  0
SPLINE
  5
11f
100
AcDbEntity
  8
0
 62
1
100
AcDbSpline
 70
8
 71
3
 72
8
 73
4
 74
0
 40
0
 40
0
 40
0
 40
0
 40
1
 40
1
 40
1
 40
1
 10
70.144358
 20
0.070555
 30
0.0
 10
70.883661
 20
0.070555
 30
0.0
 10
70.976513
 20
1.083137
 30
0.0
 10
70.144358
 20
1.083137
 30
0.0
  0
LWPOLYLINE
  5
120
100
AcDbEntity
  8
0
 62
1
100
AcDbPolyline
 90
2
 70
1
 10
60.913704
 20
0.070555
 30
0.0
 10
70.144358
 20
0.070555
 30
0.0
  0
SPLINE
  5
121
100
AcDbEntity
  8
0
 62
1
100
AcDbSpline
 70
8
 71
3
 72
8
 73
4
 74
0
 40
0
 40
0
 40
0
 40
0
 40
1
 40
1
 40
1
 40
1
 10
61.229550
 20
1.083137
 30
0.0
 10
60.736607
 20
1.087088
 30
0.0
 10
60.070469
 20
1.682693
 30
0.0
 10
59.728041
 20
1.956262
 30
0.0
  0
SPLINE
  5
122
100
AcDbEntity
  8
0
 62
1
100
AcDbSpline
 70
8
 71
3
 72
8
 73
4
 74
0
 40
0
 40
0
 40
0
 40
0
 40
1
 40
1
 40
1
 40
1
 10
59.728041
 20
1.956262
 30
0.0
 10
59.720280
 20
1.962471
 30
0.0
 10
59.708878
 20
1.970430
 30
0.0
 10
59.701032
 20
1.976667
 30
0.0
  0
SPLINE
  5
123
100
AcDbEntity
  8
0
 62
1
100
AcDbSpline
 70
8
 71
3
 72
8
 73
4
 74
0
 40
0
 40
0
 40
0
 40
0
 40
1
 40
1
 40
1
 40
1
 10
59.701032
 20
1.976667
 30
0.0
 10
59.722848
 20
2.078487
 30
0.0
 10
59.733942
 20
2.182317
 30
0.0
 10
59.734106
 20
2.286451
 30
0.0
  0
SPLINE
  5
124
100
AcDbEntity
  8
0
 62
1
100
AcDbSpline
 70
8
 71
3
 72
8
 73
4
 74
0
 40
0
 40
0
 40
0
 40
0
 40
1
 40
1
 40
1
 40
1
 10
59.734106
 20
2.286451
 30
0.0
 10
59.734131
 20
3.108810
 30
0.0
 10
59.067632
 20
3.775554
 30
0.0
 10
58.245273
 20
3.775834
 30
0.0
  0
SPLINE
  5
125
100
AcDbEntity
  8
0
 62
1
100
AcDbSpline
 70
8
 71
3
 72
8
 73
4
 74
0
 40
0
 40
0
 40
0
 40
0
 40
1
 40
1
 40
1
 40
1
 10
58.245273
 20
3.775834
 30
0.0
 10
57.993743
 20
3.775269
 30
0.0
 10
57.746460
 20
3.710959
 30
0.0
 10
57.526487
 20
3.588974
 30
0.0
  0
SPLINE
  5
126
100
AcDbEntity
  8
0
 62
1
100
AcDbSpline
 70
8
 71
3
 72
8
 73
4
 74
0
 40
0
 40
0
 40
0
 40
0
 40
1
 40
1
 40
1
 40
1
 10
57.526487
 20
3.588974
 30
0.0
 10
54.982564
 20
5.402057
 30
0.0
 10
51.659211
 20
7.638268
 30
0.0
 10
50.359036
 20
8.797405
 30
0.0
  0
SPLINE
  5
127
100
AcDbEntity
  8
0
 62
1
100
AcDbSpline
 70
8
 71
3
 72
8
 73
4
 74
0
 40
0
 40
0
 40
0
 40
0
 40
1
 40
1
 40
1
 40
1
 10
50.359036
 20
8.797405
 30
0.0
 10
49.402455
 20
9.650225
 30
0.0
 10
49.175924
 20
10.710287
 30
0.0
 10
49.483154
 20
11.830193
 30
0.0
  0
SPLINE
  5
128
100
AcDbEntity
  8
0
 62
1
100
AcDbSpline
 70
8
 71
3
 72
8
 73
4
 74
0
 40
0
 40
0
 40
0
 40
0
 40
1
 40
1
 40
1
 40
1
 10
49.483154
 20
11.830193
 30
0.0
 10
49.882566
 20
13.031315
 30
0.0
 10
50.311075
 20
14.193708
 30
0.0
 10
50.527706
 20
15.638539
 30
0.0
  0
SPLINE
  5
129
100
AcDbEntity
  8
0
 62
1
100
AcDbSpline
 70
8
 71
3
 72
8
 73
4
 74
0
 40
0
 40
0
 40
0
 40
0
 40
1
 40
1
 40
1
 40
1
 10
50.527706
 20
15.638539
 30
0.0
 10
50.763083
 20
16.496523
 30
0.0
 10
49.892088
 20
17.551324
 30
0.0
 10
48.748386
 20
17.609685
 30
0.0
  0
SPLINE
  5
12a
100
AcDbEntity
  8
0
 62
1
100
AcDbSpline
 70
8
 71
3
 72
8
 73
4
 74
0
 40
0
 40
0
 40
0
 40
0
 40
1
 40
1
 40
1
 40
1
 10
48.748386
 20
17.609685
 30
0.0
 10
48.672135
 20
17.613576
 30
0.0
 10
48.594747
 20
17.612795
 30
0.0
 10
48.516323
 20
17.607483
 30
0.0
  0
SPLINE
  5
12b
100
AcDbEntity
  8
0
 62
1
100
AcDbSpline
 70
8
 71
3
 72
8
 73
4
 74
0
 40
0
 40
0
 40
0
 40
0
 40
1
 40
1
 40
1
 40
1
 10
48.516323
 20
17.607483
 30
0.0
 10
48.337066
 20
17.595328
 30
0.0
 10
48.153165
 20
17.558068
 30
0.0
 10
47.966760
 20
17.491728
 30
0.0
  0
SPLINE
  5
12c
100
AcDbEntity
  8
0
 62
1
100
AcDbSpline
 70
8
 71
3
 72
8
 73
4
 74
0
 40
0
 40
0
 40
0
 40
0
 40
1
 40
1
 40
1
 40
1
 10
47.966760
 20
17.491728
 30
0.0
 10
47.218027
 20
11.486826
 30
0.0
 10
44.308212
 20
7.584321
 30
0.0
 10
38.894309
 20
6.118504
 30
0.0
  0
SPLINE
  5
12d
100
AcDbEntity
  8
0
 62
1
100
AcDbSpline
 70
8
 71
3
 72
8
 73
4
 74
0
 40
0
 40
0
 40
0
 40
0
 40
1
 40
1
 40
1
 40
1
 10
38.894309
 20
6.118504
 30
0.0
 10
38.870263
 20
6.478128
 30
0.0
 10
38.791072
 20
6.831914
 30
0.0
 10
38.659491
 20
7.167465
 30
0.0
  0
SPLINE
  5
12e
100
AcDbEntity
  8
0
 62
1
100
AcDbSpline
 70
8
 71
3
 72
8
 73
4
 74
0
 40
0
 40
0
 40
0
 40
0
 40
1
 40
1
 40
1
 40
1
 10
38.659491
 20
7.167465
 30
0.0
 10
38.373507
 20
8.008442
 30
0.0
 10
37.766219
 20
8.591648
 30
0.0
 10
37.105615
 20
8.950096
 30
0.0
  0
SPLINE
  5
12f
100
AcDbEntity
  8
0
 62
1
100
AcDbSpline
 70
8
 71
3
 72
8
 73
4
 74
0
 40
0
 40
0
 40
0
 40
0
 40
1
 40
1
 40
1
 40
1
 10
37.105615
 20
8.950096
 30
0.0
 10
36.913035
 20
9.057595
 30
0.0
 10
36.710764
 20
9.146734
 30
0.0
 10
36.501482
 20
9.216333
 30
0.0
  0
SPLINE
  5
130
100
AcDbEntity
  8
0
 62
1
100
AcDbSpline
 70
8
 71
3
 72
8
 73
4
 74
0
 40
0
 40
0
 40
0
 40
0
 40
1
 40
1
 40
1
 40
1
 10
36.501482
 20
9.216333
 30
0.0
 10
36.500071
 20
9.216785
 30
0.0
 10
36.498942
 20
9.216982
 30
0.0
 10
36.497616
 20
9.217434
 30
0.0
  0
SPLINE
  5
131
100
AcDbEntity
  8
0
 62
1
100
AcDbSpline
 70
8
 71
3
 72
8
 73
4
 74
0
 40
0
 40
0
 40
0
 40
0
 40
1
 40
1
 40
1
 40
1
 10
36.497616
 20
9.217434
 30
0.0
 10
36.439114
 20
9.236805
 30
0.0
 10
36.380115
 20
9.254633
 30
0.0
 10
36.320676
 20
9.270902
 30
0.0
  0
SPLINE
  5
132
100
AcDbEntity
  8
0
 62
1
100
AcDbSpline
 70
8
 71
3
 72
8
 73
4
 74
0
 40
0
 40
0
 40
0
 40
0
 40
1
 40
1
 40
1
 40
1
 10
36.320676
 20
9.270902
 30
0.0
 10
36.250468
 20
9.291024
 30
0.0
 10
36.181386
 20
9.308434
 30
0.0
 10
36.112868
 20
9.323818
 30
0.0
  0
SPLINE
  5
133
100
AcDbEntity
  8
0
 62
1
100
AcDbSpline
 70
8
 71
3
 72
8
 73
4
 74
0
 40
0
 40
0
 40
0
 40
0
 40
1
 40
1
 40
1
 40
1
 10
36.112868
 20
9.323818
 30
0.0
 10
36.098361
 20
9.327033
 30
0.0
 10
36.083855
 20
9.330157
 30
0.0
 10
36.069321
 20
9.333188
 30
0.0
  0
SPLINE
  5
134
100
AcDbEntity
  8
0
 62
1
100
AcDbSpline
 70
8
 71
3
 72
8
 73
4
 74
0
 40
0
 40
0
 40
0
 40
0
 40
1
 40
1
 40
1
 40
1
 10
36.069321
 20
9.333188
 30
0.0
 10
35.884304
 20
9.372298
 30
0.0
 10
35.709739
 20
9.392743
 30
0.0
 10
35.547320
 20
9.398783
 30
0.0
  0
LWPOLYLINE
  5
135
100
AcDbEntity
  8
0
 62
1
100
AcDbPolyline
 90
2
 70
1
 10
70.144358
 20
1.083137
 30
0.0
 10
61.229550
 20
1.083137
 30
0.0
  0
SPLINE
  5
136
100
AcDbEntity
  8
0
 62
1
100
AcDbSpline
 70
8
 71
3
 72
8
 73
4
 74
0
 40
0
 40
0
 40
0
 40
0
 40
1
 40
1
 40
1
 40
1
 10
35.266746
 20
9.398246
 30
0.0
 10
35.252098
 20
9.405872
 30
0.0
 10
35.259380
 20
9.378959
 30
0.0
 10
35.257940
 20
9.398811
 30
0.0
  0
SPLINE
  5
137
100
AcDbEntity
  8
0
 62
1
100
AcDbSpline
 70
8
 71
3
 72
8
 73
4
 74
0
 40
0
 40
0
 40
0
 40
0
 40
1
 40
1
 40
1
 40
1
 10
35.257940
 20
9.398811
 30
0.0
 10
35.095521
 20
9.392771
 30
0.0
 10
34.920956
 20
9.372327
 30
0.0
 10
34.735939
 20
9.333216
 30
0.0
  0
SPLINE
  5
138
100
AcDbEntity
  8
0
 62
1
100
AcDbSpline
 70
8
 71
3
 72
8
 73
4
 74
0
 40
0
 40
0
 40
0
 40
0
 40
1
 40
1
 40
1
 40
1
 10
34.735939
 20
9.333216
 30
0.0
 10
34.721405
 20
9.330185
 30
0.0
 10
34.706901
 20
9.327061
 30
0.0
 10
34.692395
 20
9.323847
 30
0.0
  0
SPLINE
  5
139
100
AcDbEntity
  8
0
 62
1
100
AcDbSpline
 70
8
 71
3
 72
8
 73
4
 74
0
 40
0
 40
0
 40
0
 40
0
 40
1
 40
1
 40
1
 40
1
 10
34.692395
 20
9.323847
 30
0.0
 10
34.623877
 20
9.308463
 30
0.0
 10
34.554795
 20
9.291052
 30
0.0
 10
34.484587
 20
9.270930
 30
0.0
  0
SPLINE
  5
13a
100
AcDbEntity
  8
0
 62
1
100
AcDbSpline
 70
8
 71
3
 72
8
 73
4
 74
0
 40
0
 40
0
 40
0
 40
0
 40
1
 40
1
 40
1
 40
1
 10
34.484587
 20
9.270930
 30
0.0
 10
34.425148
 20
9.254660
 30
0.0
 10
34.366149
 20
9.236834
 30
0.0
 10
34.307647
 20
9.217462
 30
0.0
  0
SPLINE
  5
13b
100
AcDbEntity
  8
0
 62
1
100
AcDbSpline
 70
8
 71
3
 72
8
 73
4
 74
0
 40
0
 40
0
 40
0
 40
0
 40
1
 40
1
 40
1
 40
1
 10
34.307647
 20
9.217462
 30
0.0
 10
34.306236
 20
9.217010
 30
0.0
 10
34.305107
 20
9.216813
 30
0.0
 10
34.303781
 20
9.216361
 30
0.0
  0
SPLINE
  5
13c
100
AcDbEntity
  8
0
 62
1
100
AcDbSpline
 70
8
 71
3
 72
8
 73
4
 74
0
 40
0
 40
0
 40
0
 40
0
 40
1
 40
1
 40
1
 40
1
 10
34.303781
 20
9.216361
 30
0.0
 10
34.094499
 20
9.146762
 30
0.0
 10
33.892230
 20
9.057624
 30
0.0
 10
33.699650
 20
8.950124
 30
0.0
  0
SPLINE
  5
13d
100
AcDbEntity
  8
0
 62
1
100
AcDbSpline
 70
8
 71
3
 72
8
 73
4
 74
0
 40
0
 40
0
 40
0
 40
0
 40
1
 40
1
 40
1
 40
1
 10
33.699650
 20
8.950124
 30
0.0
 10
33.039047
 20
8.591676
 30
0.0
 10
32.431761
 20
8.008470
 30
0.0
 10
32.145777
 20
7.167493
 30
0.0
  0
SPLINE
  5
13e
100
AcDbEntity
  8
0
 62
1
100
AcDbSpline
 70
8
 71
3
 72
8
 73
4
 74
0
 40
0
 40
0
 40
0
 40
0
 40
1
 40
1
 40
1
 40
1
 10
32.145777
 20
7.167493
 30
0.0
 10
32.014197
 20
6.831942
 30
0.0
 10
31.935005
 20
6.478157
 30
0.0
 10
31.910960
 20
6.118532
 30
0.0
  0
SPLINE
  5
13f
100
AcDbEntity
  8
0
 62
1
100
AcDbSpline
 70
8
 71
3
 72
8
 73
4
 74
0
 40
0
 40
0
 40
0
 40
0
 40
1
 40
1
 40
1
 40
1
 10
31.910960
 20
6.118532
 30
0.0
 10
26.497056
 20
7.584349
 30
0.0
 10
23.587239
 20
11.486854
 30
0.0
 10
22.838506
 20
17.491756
 30
0.0
  0
SPLINE
  5
140
100
AcDbEntity
  8
0
 62
1
100
AcDbSpline
 70
8
 71
3
 72
8
 73
4
 74
0
 40
0
 40
0
 40
0
 40
0
 40
1
 40
1
 40
1
 40
1
 10
22.838506
 20
17.491756
 30
0.0
 10
22.652101
 20
17.558096
 30
0.0
 10
22.468201
 20
17.595356
 30
0.0
 10
22.288945
 20
17.607512
 30
0.0
  0
SPLINE
  5
141
100
AcDbEntity
  8
0
 62
1
100
AcDbSpline
 70
8
 71
3
 72
8
 73
4
 74
0
 40
0
 40
0
 40
0
 40
0
 40
1
 40
1
 40
1
 40
1
 10
22.288945
 20
17.607512
 30
0.0
 10
22.210521
 20
17.612826
 30
0.0
 10
22.133131
 20
17.613608
 30
0.0
 10
22.056883
 20
17.609713
 30
0.0
  0
LWPOLYLINE
  5
142
100
AcDbEntity
  8
0
 62
1
100
AcDbPolyline
 90
3
 70
1
 10
35.547320
 20
9.398783
 30
0.0
 10
35.550622
 20
9.399347
 30
0.0
 10
35.266746
 20
9.398246
 30
0.0
  0
LWPOLYLINE
  5
143
100
AcDbEntity
  8
0
 62
1
100
AcDbPolyline
 90
2
 70
1
 10
22.056883
 20
17.609713
 30
0.0
 10
22.056879
 20
17.609967
 30
0.0
  0
ENDSEC
  0
SECTION
  2
OBJECTS
  0
DICTIONARY
  5
C
330
0
100
AcDbDictionary
  3
ACAD_GROUP
350
D
  3
ACAD_MLINESTYLE
350
17
  0
DICTIONARY
  5
D
330
C
100
AcDbDictionary
  0
DICTIONARY
  5
1A
330
C
100
AcDbDictionary
  0
DICTIONARY
  5
17
330
C
100
AcDbDictionary
  3
STANDARD
350
18
  0
DICTIONARY
  5
19
330
C
100
AcDbDictionary
  0
ENDSEC
  0
EOF
